<?xml version="1.0" encoding="utf-8"?>
<!-- Generator: Adobe Illustrator 15.0.0, SVG Export Plug-In . SVG Version: 6.00 Build 0)  -->
<!DOCTYPE svg PUBLIC "-//W3C//DTD SVG 1.1//EN" "http://www.w3.org/Graphics/SVG/1.1/DTD/svg11.dtd">
<svg version="1.1" id="Layer_1" xmlns="http://www.w3.org/2000/svg" xmlns:xlink="http://www.w3.org/1999/xlink" x="0px" y="0px"
	 width="853.333px" height="853.333px" viewBox="0 0 853.333 853.333" enable-background="new 0 0 853.333 853.333"
	 xml:space="preserve">
<path fill="#333333" d="M425.053,590.534L339.6,433.61l-60.907,75.166L66.129,469.864c-23.015-4.211-38.256-26.283-34.044-49.297
	c4.213-23.015,26.28-38.255,49.299-34.044l163.123,29.86L353.47,281.913l73.66,135.268l77.492-134.529l101.508,133.622
	l164.854-29.771c23.02-4.16,45.061,11.137,49.217,34.162c4.16,23.025-11.137,45.058-34.16,49.216l-215.961,39l-55.732-73.363
	L425.053,590.534z"/>
<circle fill="#333333" cx="560.983" cy="753.749" r="40.871"/>
<circle fill="#333333" cx="291.286" cy="102.643" r="40.87"/>
<circle fill="#333333" cx="675.303" cy="677.364" r="40.871"/>
<circle fill="#333333" cx="176.967" cy="179.029" r="40.871"/>
<path fill="#333333" d="M751.688,522.17c22.572,0,40.869,18.299,40.869,40.871s-18.297,40.871-40.869,40.871
	c-22.574,0-40.871-18.299-40.871-40.871S729.114,522.17,751.688,522.17z"/>
<path fill="#333333" d="M84.94,331.106c20.854,8.64,44.763-1.264,53.402-22.119c8.636-20.854-1.266-44.762-22.122-53.399
	c-20.854-8.641-44.762,1.263-53.398,22.117C54.181,298.561,64.085,322.47,84.94,331.106z"/>
<path fill="#333333" d="M767.325,331.105c20.855-8.639,30.76-32.548,22.121-53.402c-8.639-20.853-32.545-30.757-53.402-22.118
	c-20.85,8.636-30.754,32.547-22.115,53.401C722.565,329.84,746.473,339.744,767.325,331.105z"/>
<circle fill="#333333" cx="100.581" cy="563.042" r="40.871"/>
<circle fill="#333333" cx="675.297" cy="179.027" r="40.871"/>
<path fill="#333333" d="M205.867,706.26c15.958-15.961,15.958-41.838-0.001-57.799c-15.962-15.961-41.84-15.961-57.801,0
	s-15.961,41.838,0,57.799C164.022,722.225,189.904,722.223,205.867,706.26z"/>
<circle fill="#333333" cx="560.981" cy="102.641" r="40.872"/>
<circle fill="#333333" cx="291.282" cy="753.747" r="40.871"/>
<path fill="#333333" d="M467,75.819c0.002-22.576-18.299-40.874-40.872-40.871c-22.573-0.002-40.869,18.295-40.871,40.871
	c0.001,22.569,18.299,40.869,40.872,40.872C448.704,116.689,467.002,98.388,467,75.819z"/>
<path fill="#333333" d="M467,780.569c0-22.57-18.299-40.869-40.87-40.869c-22.572,0-40.873,18.297-40.871,40.871
	c-0.001,22.574,18.298,40.871,40.868,40.873C448.704,821.444,467.002,803.141,467,780.569z"/>
<path fill="#333333" d="M426.096,708.581c-86.826,0-167.342-39.264-220.901-107.723c-14.417-18.43-11.165-45.055,7.263-59.471
	c18.429-14.416,45.052-11.164,59.47,7.264c37.39,47.791,93.582,75.201,154.167,75.201c60.958,0,117.36-27.684,154.745-75.953
	c14.328-18.496,40.938-21.879,59.436-7.555c18.496,14.328,21.879,40.938,7.553,59.436c-25.631,33.094-58.904,60.477-96.225,79.189
	C512.42,698.618,470.196,708.581,426.096,708.581z"/>
<path fill="#333333" d="M206.62,374.64c-6.623,0.001-13.34-1.556-19.614-4.841c-20.728-10.852-28.734-36.452-17.882-57.18
	c25.553-48.808,61.134-89.538,102.896-117.784c46.058-31.154,97.897-46.95,154.076-46.95c110.993,0,204.604,59.866,256.829,164.249
	c10.467,20.924,1.992,46.373-18.932,56.842c-20.924,10.47-46.373,1.993-56.842-18.932
	c-37.889-75.727-102.189-117.431-181.056-117.431c-75.912,0-142.215,43.485-181.909,119.305
	C236.619,366.371,221.877,374.639,206.62,374.64z"/>
</svg>
